<?xml version="1.0" encoding="UTF-8" standalone="no"?>
<svg width="239px" height="143px" viewBox="0 0 239 143" version="1.1" xmlns="http://www.w3.org/2000/svg" xmlns:xlink="http://www.w3.org/1999/xlink" xmlns:sketch="http://www.bohemiancoding.com/sketch/ns">
    <!-- Generator: Sketch 3.3.2 (12043) - http://www.bohemiancoding.com/sketch -->
    <title>Slice 1</title>
    <desc>Created with Sketch.</desc>
    <defs></defs>
    <g id="Page-1" stroke="none" stroke-width="1" fill="none" fill-rule="evenodd" sketch:type="MSPage">
        <g id="Rectangle-49-+-Group-Copy-3" sketch:type="MSLayerGroup" transform="translate(182.383484, 71.499282) scale(-1, 1) rotate(-7.000000) translate(-182.383484, -71.499282) translate(134.853895, 6.423367)">
            <rect id="Rectangle-49" fill="#FFFFFF" sketch:type="MSShapeGroup" x="1.46244889" y="1.46238011" width="93.5967292" height="128.689449" rx="2"></rect>
            <g id="Group-Copy" transform="translate(1.108536, 0.912509)" fill="#000000" sketch:type="MSShapeGroup">
                <path d="M45.6664291,88.4739965 C46.070065,88.4739965 46.3976536,88.1464233 46.3976536,87.7428064 C46.3976536,87.3391895 46.070065,87.0116164 45.6664291,87.0116164 L45.1004614,87.0116164 C44.6968255,87.0116164 44.369237,87.3391895 44.369237,87.7428064 C44.369237,88.1464233 44.6968255,88.4739965 45.1004614,88.4739965 L45.6664291,88.4739965 L45.6664291,88.4739965 Z" id="Shape"></path>
                <path d="M59.8185471,88.4739965 C60.222183,88.4739965 60.5497715,88.1464233 60.5497715,87.7428064 C60.5497715,87.3391895 60.222183,87.0116164 59.8185471,87.0116164 L59.2525794,87.0116164 C58.8489435,87.0116164 58.5213549,87.3391895 58.5213549,87.7428064 C58.5213549,88.1464233 58.8489435,88.4739965 59.2525794,88.4739965 L59.8185471,88.4739965 L59.8185471,88.4739965 Z" id="Shape"></path>
                <path d="M42.8351281,88.4739965 C43.238764,88.4739965 43.5663525,88.1464233 43.5663525,87.7428064 C43.5663525,87.3391895 43.238764,87.0116164 42.8351281,87.0116164 L42.2691604,87.0116164 C41.8655245,87.0116164 41.5379359,87.3391895 41.5379359,87.7428064 C41.5379359,88.1464233 41.8655245,88.4739965 42.2691604,88.4739965 L42.8351281,88.4739965 L42.8351281,88.4739965 Z" id="Shape"></path>
                <path d="M31.5128488,88.4739965 C31.9164846,88.4739965 32.2440732,88.1464233 32.2440732,87.7428064 C32.2440732,87.3391895 31.9164846,87.0116164 31.5128488,87.0116164 L30.946881,87.0116164 C30.5432451,87.0116164 30.2156566,87.3391895 30.2156566,87.7428064 C30.2156566,88.1464233 30.5432451,88.4739965 30.946881,88.4739965 L31.5128488,88.4739965 L31.5128488,88.4739965 Z" id="Shape"></path>
                <path d="M62.6498481,88.4739965 C63.053484,88.4739965 63.3810726,88.1464233 63.3810726,87.7428064 C63.3810726,87.3391895 63.053484,87.0116164 62.6498481,87.0116164 L62.0838804,87.0116164 C61.6802445,87.0116164 61.352656,87.3391895 61.352656,87.7428064 C61.352656,88.1464233 61.6802445,88.4739965 62.0838804,88.4739965 L62.6498481,88.4739965 L62.6498481,88.4739965 Z" id="Shape"></path>
                <path d="M40.003827,88.4739965 C40.4074629,88.4739965 40.7350515,88.1464233 40.7350515,87.7428064 C40.7350515,87.3391895 40.4074629,87.0116164 40.003827,87.0116164 L39.4378593,87.0116164 C39.0342234,87.0116164 38.7066349,87.3391895 38.7066349,87.7428064 C38.7066349,88.1464233 39.0342234,88.4739965 39.4378593,88.4739965 L40.003827,88.4739965 L40.003827,88.4739965 Z" id="Shape"></path>
                <path d="M34.3441498,88.4739965 C34.7477857,88.4739965 35.0753743,88.1464233 35.0753743,87.7428064 C35.0753743,87.3391895 34.7477857,87.0116164 34.3441498,87.0116164 L33.7781821,87.0116164 C33.3745462,87.0116164 33.0469576,87.3391895 33.0469576,87.7428064 C33.0469576,88.1464233 33.3745462,88.4739965 33.7781821,88.4739965 L34.3441498,88.4739965 L34.3441498,88.4739965 Z" id="Shape"></path>
                <path d="M70.5748587,88.4739965 L71.1408264,88.4739965 C71.5444623,88.4739965 71.8720509,88.1464233 71.8720509,87.7428064 C71.8720509,87.3391895 71.5444623,87.0116164 71.1408264,87.0116164 L70.5748587,87.0116164 C70.1712228,87.0116164 69.8436343,87.3391895 69.8436343,87.7428064 C69.8436343,88.1464233 70.1712228,88.4739965 70.5748587,88.4739965 L70.5748587,88.4739965 Z" id="Shape"></path>
                <path d="M65.4796868,88.4739965 C65.8833226,88.4739965 66.2109112,88.1464233 66.2109112,87.7428064 C66.2109112,87.3391895 65.8833226,87.0116164 65.4796868,87.0116164 L64.913719,87.0116164 C64.5100831,87.0116164 64.1824946,87.3391895 64.1824946,87.7428064 C64.1824946,88.1464233 64.5100831,88.4739965 64.913719,88.4739965 L65.4796868,88.4739965 L65.4796868,88.4739965 Z" id="Shape"></path>
                <path d="M73.9721275,88.4739965 C74.3757634,88.4739965 74.7033519,88.1464233 74.7033519,87.7428064 C74.7033519,87.3391895 74.3757634,87.0116164 73.9721275,87.0116164 L73.4061598,87.0116164 C73.0025239,87.0116164 72.6749353,87.3391895 72.6749353,87.7428064 C72.6749353,88.1464233 73.0025239,88.4739965 73.4061598,88.4739965 L73.9721275,88.4739965 L73.9721275,88.4739965 Z" id="Shape"></path>
                <path d="M79.6332671,88.4739965 C80.036903,88.4739965 80.3644916,88.1464233 80.3644916,87.7428064 C80.3644916,87.3391895 80.036903,87.0116164 79.6332671,87.0116164 L79.0672994,87.0116164 C78.6636635,87.0116164 78.336075,87.3391895 78.336075,87.7428064 C78.336075,88.1464233 78.6636635,88.4739965 79.0672994,88.4739965 L79.6332671,88.4739965 L79.6332671,88.4739965 Z" id="Shape"></path>
                <path d="M76.8034285,88.4739965 C77.2070644,88.4739965 77.534653,88.1464233 77.534653,87.7428064 C77.534653,87.3391895 77.2070644,87.0116164 76.8034285,87.0116164 L76.2374608,87.0116164 C75.8338249,87.0116164 75.5062364,87.3391895 75.5062364,87.7428064 C75.5062364,88.1464233 75.8338249,88.4739965 76.2374608,88.4739965 L76.8034285,88.4739965 L76.8034285,88.4739965 Z" id="Shape"></path>
                <path d="M28.6830101,88.4739965 C29.086646,88.4739965 29.4142346,88.1464233 29.4142346,87.7428064 C29.4142346,87.3391895 29.086646,87.0116164 28.6830101,87.0116164 L28.1170424,87.0116164 C27.7134065,87.0116164 27.385818,87.3391895 27.385818,87.7428064 C27.385818,88.1464233 27.7134065,88.4739965 28.1170424,88.4739965 L28.6830101,88.4739965 L28.6830101,88.4739965 Z" id="Shape"></path>
                <path d="M68.3109878,88.4739965 C68.7146237,88.4739965 69.0422123,88.1464233 69.0422123,87.7428064 C69.0422123,87.3391895 68.7146237,87.0116164 68.3109878,87.0116164 L67.7450201,87.0116164 C67.3413842,87.0116164 67.0137956,87.3391895 67.0137956,87.7428064 C67.0137956,88.1464233 67.3413842,88.4739965 67.7450201,88.4739965 L68.3109878,88.4739965 L68.3109878,88.4739965 Z" id="Shape"></path>
                <path d="M37.1739884,88.4739965 C37.5776243,88.4739965 37.9052129,88.1464233 37.9052129,87.7428064 C37.9052129,87.3391895 37.5776243,87.0116164 37.1739884,87.0116164 L36.6080207,87.0116164 C36.2043848,87.0116164 35.8767963,87.3391895 35.8767963,87.7428064 C35.8767963,88.1464233 36.2043848,88.4739965 36.6080207,88.4739965 L37.1739884,88.4739965 L37.1739884,88.4739965 Z" id="Shape"></path>
                <path d="M54.1574074,87.0116164 L53.5914397,87.0116164 C53.1878038,87.0116164 52.8602153,87.3391895 52.8602153,87.7428064 C52.8602153,88.1464233 53.1878038,88.4739965 53.5914397,88.4739965 L54.1574074,88.4739965 C54.5610433,88.4739965 54.8886319,88.1464233 54.8886319,87.7428064 C54.8886319,87.3391895 54.5625058,87.0116164 54.1574074,87.0116164 L54.1574074,87.0116164 Z" id="Shape"></path>
                <path d="M57.7199329,87.7428064 C57.7199329,87.3391895 57.3923444,87.0116164 56.9887085,87.0116164 L56.4227408,87.0116164 C56.0191049,87.0116164 55.6915163,87.3391895 55.6915163,87.7428064 C55.6915163,88.1464233 56.0191049,88.4739965 56.4227408,88.4739965 L56.9887085,88.4739965 C57.3923444,88.4739965 57.7199329,88.1464233 57.7199329,87.7428064 L57.7199329,87.7428064 Z" id="Shape"></path>
                <path d="M23.7530949,87.7428064 C23.7530949,87.3391895 23.4255064,87.0116164 23.0218705,87.0116164 L22.4559028,87.0116164 C22.0522669,87.0116164 21.7246783,87.3391895 21.7246783,87.7428064 C21.7246783,88.1464233 22.0522669,88.4739965 22.4559028,88.4739965 L23.0218705,88.4739965 C23.4255064,88.4739965 23.7530949,88.1464233 23.7530949,87.7428064 L23.7530949,87.7428064 Z" id="Shape"></path>
                <path d="M48.4962678,87.0116164 L47.9303,87.0116164 C47.5266641,87.0116164 47.1990756,87.3391895 47.1990756,87.7428064 C47.1990756,88.1464233 47.5266641,88.4739965 47.9303,88.4739965 L48.4962678,88.4739965 C48.8999036,88.4739965 49.2274922,88.1464233 49.2274922,87.7428064 C49.2274922,87.3391895 48.9013661,87.0116164 48.4962678,87.0116164 L48.4962678,87.0116164 Z" id="Shape"></path>
                <path d="M51.3275688,87.0116164 L50.7616011,87.0116164 C50.3579652,87.0116164 50.0303766,87.3391895 50.0303766,87.7428064 C50.0303766,88.1464233 50.3579652,88.4739965 50.7616011,88.4739965 L51.3275688,88.4739965 C51.7312047,88.4739965 52.0587933,88.1464233 52.0587933,87.7428064 C52.0587933,87.3391895 51.7312047,87.0116164 51.3275688,87.0116164 L51.3275688,87.0116164 Z" id="Shape"></path>
                <path d="M87.5597401,88.4739965 L88.1257079,88.4739965 C88.5293438,88.4739965 88.8569323,88.1464233 88.8569323,87.7428064 C88.8569323,87.3391895 88.5293438,87.0116164 88.1257079,87.0116164 L87.5597401,87.0116164 C87.1561043,87.0116164 86.8285157,87.3391895 86.8285157,87.7428064 C86.8285157,88.1464233 87.1546418,88.4739965 87.5597401,88.4739965 L87.5597401,88.4739965 Z" id="Shape"></path>
                <path d="M84.7284391,88.4739965 L85.2944068,88.4739965 C85.6980427,88.4739965 86.0256313,88.1464233 86.0256313,87.7428064 C86.0256313,87.3391895 85.6980427,87.0116164 85.2944068,87.0116164 L84.7284391,87.0116164 C84.3248032,87.0116164 83.9972146,87.3391895 83.9972146,87.7428064 C83.9972146,88.1464233 84.3248032,88.4739965 84.7284391,88.4739965 L84.7284391,88.4739965 Z" id="Shape"></path>
                <path d="M81.1659136,87.7428064 C81.1659136,88.1464233 81.4935021,88.4739965 81.897138,88.4739965 L82.4631058,88.4739965 C82.8667416,88.4739965 83.1943302,88.1464233 83.1943302,87.7428064 C83.1943302,87.3391895 82.8667416,87.0116164 82.4631058,87.0116164 L81.897138,87.0116164 C81.4935021,87.0116164 81.1659136,87.3391895 81.1659136,87.7428064 L81.1659136,87.7428064 Z" id="Shape"></path>
                <path d="M25.8517091,88.4739965 C26.255345,88.4739965 26.5829335,88.1464233 26.5829335,87.7428064 C26.5829335,87.3391895 26.255345,87.0116164 25.8517091,87.0116164 L25.2857414,87.0116164 C24.8821055,87.0116164 24.5545169,87.3391895 24.5545169,87.7428064 C24.5545169,88.1464233 24.8821055,88.4739965 25.2857414,88.4739965 L25.8517091,88.4739965 L25.8517091,88.4739965 Z" id="Shape"></path>
                <path d="M20.1905694,87.0116164 L19.6246017,87.0116164 C19.2209658,87.0116164 18.8933773,87.3391895 18.8933773,87.7428064 C18.8933773,88.1464233 19.2209658,88.4739965 19.6246017,88.4739965 L20.1905694,88.4739965 C20.5942053,88.4739965 20.9217939,88.1464233 20.9217939,87.7428064 C20.9217939,87.3391895 20.5956678,87.0116164 20.1905694,87.0116164 L20.1905694,87.0116164 Z" id="Shape"></path>
                <path d="M11.132161,88.4739965 L11.6995911,88.4739965 C12.103227,88.4739965 12.4308156,88.1464233 12.4308156,87.7428064 C12.4308156,87.3391895 12.103227,87.0116164 11.6995911,87.0116164 L11.132161,87.0116164 C10.7285251,87.0116164 10.4009365,87.3391895 10.4009365,87.7428064 C10.4009365,88.1464233 10.7285251,88.4739965 11.132161,88.4739965 L11.132161,88.4739965 Z" id="Shape"></path>
                <path d="M5.47102131,88.4739965 L6.03698903,88.4739965 C6.44062493,88.4739965 6.76821348,88.1464233 6.76821348,87.7428064 C6.76821348,87.3391895 6.44062493,87.0116164 6.03698903,87.0116164 L5.47102131,87.0116164 C5.06738542,87.0116164 4.73979686,87.3391895 4.73979686,87.7428064 C4.73979686,88.1464233 5.06738542,88.4739965 5.47102131,88.4739965 L5.47102131,88.4739965 Z" id="Shape"></path>
                <path d="M8.30232237,88.4739965 L8.86829009,88.4739965 C9.27192598,88.4739965 9.59951454,88.1464233 9.59951454,87.7428064 C9.59951454,87.3391895 9.27192598,87.0116164 8.86829009,87.0116164 L8.30232237,87.0116164 C7.89868647,87.0116164 7.57109792,87.3391895 7.57109792,87.7428064 C7.57109792,88.1464233 7.89722402,88.4739965 8.30232237,88.4739965 L8.30232237,88.4739965 Z" id="Shape"></path>
                <path d="M17.3607308,87.0116164 L16.7947631,87.0116164 C16.3911272,87.0116164 16.0635386,87.3391895 16.0635386,87.7428064 C16.0635386,88.1464233 16.3911272,88.4739965 16.7947631,88.4739965 L17.3607308,88.4739965 C17.7643667,88.4739965 18.0919553,88.1464233 18.0919553,87.7428064 C18.0919553,87.3391895 17.7643667,87.0116164 17.3607308,87.0116164 L17.3607308,87.0116164 Z" id="Shape"></path>
                <path d="M14.5294298,88.4739965 C14.9330657,88.4739965 15.2606542,88.1464233 15.2606542,87.7428064 C15.2606542,87.3391895 14.9330657,87.0116164 14.5294298,87.0116164 L13.963462,87.0116164 C13.5598261,87.0116164 13.2322376,87.3391895 13.2322376,87.7428064 C13.2322376,88.1464233 13.5598261,88.4739965 13.963462,88.4739965 L14.5294298,88.4739965 L14.5294298,88.4739965 Z" id="Shape"></path>
                <path d="M92.1342803,0 L1.46244889,0 C0.655177104,0 0,0.655146288 0,1.46238011 L0,110.409698 L0,111.872078 L0,127.227069 C0,128.034303 0.655177104,128.689449 1.46244889,128.689449 L92.1342803,128.689449 C92.9415521,128.689449 93.5967292,128.034303 93.5967292,127.227069 L93.5967292,111.872078 L93.5967292,110.409698 L93.5967292,1.46238011 C93.5967292,0.655146288 92.9415521,0 92.1342803,0 L92.1342803,0 Z M90.6718314,125.764689 L2.92489779,125.764689 L2.92489779,111.872078 L90.6718314,111.872078 L90.6718314,125.764689 L90.6718314,125.764689 Z M90.6718314,87.0116164 L90.3895788,87.0116164 C89.9859429,87.0116164 89.6583543,87.3391895 89.6583543,87.7428064 C89.6583543,88.1464233 89.9859429,88.4739965 90.3895788,88.4739965 L90.6718314,88.4739965 L90.6718314,110.409698 L2.92489779,110.409698 L2.92489779,88.4739965 L3.20715042,88.4739965 C3.61078632,88.4739965 3.93837487,88.1464233 3.93837487,87.7428064 C3.93837487,87.3391895 3.61078632,87.0116164 3.20715042,87.0116164 L2.92489779,87.0116164 L2.92489779,2.92476021 L90.6718314,2.92476021 L90.6718314,87.0116164 L90.6718314,87.0116164 Z" id="Shape"></path>
                <rect id="Rectangle-path" x="11.6995911" y="10.9678508" width="17.5493867" height="1.46238011"></rect>
                <rect id="Rectangle-path" x="11.6995911" y="16.8173712" width="29.2489779" height="1.46238011"></rect>
                <rect id="Rectangle-path" x="5.84979557" y="116.259219" width="23.3991823" height="1.46238011"></rect>
                <rect id="Rectangle-path" x="35.0987734" y="116.259219" width="11.6995911" height="1.46238011"></rect>
                <rect id="Rectangle-path" x="64.3477513" y="116.259219" width="23.3991823" height="1.46238011"></rect>
                <rect id="Rectangle-path" x="11.6995911" y="33.6347425" width="46.7983646" height="2.92476021"></rect>
                <rect id="Rectangle-path" x="23.3991823" y="98.7106572" width="23.3991823" height="1.46238011"></rect>
                <rect id="Rectangle-path" x="17.5493867" y="46.0649734" width="11.6995911" height="1.46238011"></rect>
                <rect id="Rectangle-path" x="40.948569" y="46.0649734" width="11.6995911" height="1.46238011"></rect>
                <rect id="Rectangle-path" x="64.3477513" y="46.0649734" width="11.6995911" height="1.46238011"></rect>
                <path d="M35.8299979,76.0437656 L57.7667313,76.0437656 L59.2291802,76.0437656 L81.897138,76.0437656 L81.897138,52.6456839 L59.2291802,52.6456839 L57.7667313,52.6456839 L35.8299979,52.6456839 L34.367549,52.6456839 L11.6995911,52.6456839 L11.6995911,76.0437656 L34.367549,76.0437656 L35.8299979,76.0437656 L35.8299979,76.0437656 Z M59.2291802,54.108064 L80.4346891,54.108064 L80.4346891,74.5813855 L59.2291802,74.5813855 L59.2291802,54.108064 L59.2291802,54.108064 Z M35.8299979,54.108064 L57.7667313,54.108064 L57.7667313,74.5813855 L35.8299979,74.5813855 L35.8299979,54.108064 L35.8299979,54.108064 Z M13.16204,54.108064 L34.367549,54.108064 L34.367549,74.5813855 L13.16204,74.5813855 L13.16204,54.108064 L13.16204,54.108064 Z" id="Shape"></path>
                <rect id="Rectangle-path" x="17.5493867" y="57.7640142" width="11.6995911" height="1.46238011"></rect>
                <rect id="Rectangle-path" x="17.5493867" y="63.6135347" width="11.6995911" height="1.46238011"></rect>
                <rect id="Rectangle-path" x="17.5493867" y="69.4630551" width="11.6995911" height="1.46238011"></rect>
                <rect id="Rectangle-path" x="40.948569" y="57.7640142" width="11.6995911" height="1.46238011"></rect>
                <rect id="Rectangle-path" x="40.948569" y="63.6135347" width="11.6995911" height="1.46238011"></rect>
                <rect id="Rectangle-path" x="40.948569" y="69.4630551" width="11.6995911" height="1.46238011"></rect>
                <rect id="Rectangle-path" x="64.3477513" y="57.7640142" width="11.6995911" height="1.46238011"></rect>
                <rect id="Rectangle-path" x="64.3477513" y="63.6135347" width="11.6995911" height="1.46238011"></rect>
                <rect id="Rectangle-path" x="64.3477513" y="69.4630551" width="11.6995911" height="1.46238011"></rect>
                <path d="M14.7531844,98.6214521 C14.4314457,98.5117735 13.8537784,98.3275137 13.8537784,97.9063482 C13.8537784,97.5392908 14.2296277,97.3930528 14.6332636,97.3930528 C15.0646861,97.3930528 15.4770966,97.5758503 15.8076101,97.8420035 L16.4861864,96.5126999 C15.9904162,96.1909763 15.3951995,96.035964 14.8175322,95.9803936 L14.8175322,94.8704471 L13.9649245,94.8704471 L13.9649245,95.9803936 C12.8461511,96.0535126 12.0944523,97.0537806 12.0944523,98.1359419 C12.0944523,99.2546626 12.8183646,99.6670538 13.5349645,99.933207 C14.2588767,100.19936 14.9740142,100.29149 14.9740142,100.804786 C14.9740142,101.253736 14.4972559,101.474556 14.1126318,101.474556 C13.5261898,101.474556 12.8739376,101.098724 12.4527523,100.703881 L11.6995911,102.087293 C12.0023181,102.370995 12.3971793,102.545018 12.7818033,102.692718 C13.1664274,102.838956 13.5612886,102.922312 13.9649245,102.922312 L13.9649245,104.013248 L14.8175322,104.013248 L14.8175322,102.866742 C16.009428,102.572803 16.7435774,101.91327 16.7435774,100.6293 C16.7435774,99.3541045 15.7988354,98.9694985 14.7531844,98.6214521 L14.7531844,98.6214521 Z" id="Shape"></path>
                <path d="M80.6365071,102.065357 C79.0044141,101.866474 77.4366689,102.022948 75.8045759,102.031722 C74.8715335,102.03611 73.9648152,101.685138 73.0727214,101.663203 C71.8896003,101.633955 71.1569134,102.325661 70.4461632,101.198166 C70.3306297,101.015368 70.1244244,100.872055 69.8992073,100.883754 C68.9954139,100.933475 68.4294462,101.414598 67.9541503,102.03026 C68.0331225,101.310769 67.9483005,100.642461 67.3691707,100.244694 C66.803203,99.8557009 66.2854961,99.902497 65.7941133,100.148177 C65.1945092,99.6977638 64.5188578,99.3233945 63.8051828,98.9490252 C63.6487007,98.8671319 63.4936812,98.7954753 63.3415865,98.7296682 C64.7981856,97.4106013 66.1933618,96.0301145 67.5256528,94.7139724 C67.9351384,94.3088931 67.5110283,93.6742202 66.9860091,93.7868234 C64.4252611,94.3396031 61.9244735,95.5255934 60.3347915,97.6592059 C60.1373609,97.9238967 60.3099299,98.286567 60.5424593,98.4488912 C60.864198,98.6755601 61.2005613,98.8627448 61.5369245,99.0528542 C60.1315111,100.275404 58.1791419,101.566686 57.332384,103.017367 C57.4406052,102.833107 57.172977,102.609363 57.0267321,102.781923 C56.9901709,102.825795 56.9521473,102.869666 56.915586,102.913538 C56.8453885,102.996893 56.8263767,103.128508 56.915586,103.210401 C56.9345979,103.226487 56.9521473,103.244036 56.9711591,103.260122 C57.0442815,103.325929 57.146653,103.342015 57.2329374,103.293756 C59.0522239,102.280327 60.7779136,100.96711 62.4217061,99.5427515 C62.6849469,99.6802153 62.9467253,99.817679 63.212891,99.9595299 C63.7145109,100.209597 64.2044313,100.4816 64.6797272,100.777 C64.727988,100.809173 64.7616243,100.834033 64.8069603,100.864743 C64.4501227,101.180617 64.099135,101.51404 63.7452224,101.767032 C63.2611518,101.72901 62.8136424,101.810903 62.2447498,102.351984 C61.8469637,102.729278 62.1687025,103.362488 62.6732473,103.385886 C63.2670016,103.413672 63.5887403,103.226487 63.9031668,102.991044 C64.6300039,102.973495 65.6317814,103.148981 66.431741,103.115346 L66.431741,103.118271 C66.4858516,103.432683 66.2620969,104.238454 66.24601,104.560178 C66.2182234,105.101258 66.9289736,105.35425 67.2916609,104.993042 C68.1735176,104.115614 68.5654539,102.862354 69.849484,102.868204 C70.1741477,102.869666 71.0472297,103.206014 71.4888893,103.249885 C71.8764382,103.072937 72.2859239,102.97057 72.7188088,102.942785 C72.911852,103.128508 73.1151324,103.302531 73.3271875,103.464855 C73.514381,103.486791 73.9677401,103.59062 74.1490838,103.631566 C76.0371053,104.060044 78.6329521,103.301068 80.6365071,103.524813 C81.5724744,103.631566 81.5563874,102.176498 80.6365071,102.065357 L80.6365071,102.065357 Z M62.339809,98.3114275 C61.6729323,97.9970157 61.5764107,97.6738297 63.0300849,96.6150665 C63.7788587,96.0695988 64.6241542,95.6776809 65.500161,95.3705811 C64.4969211,96.3957095 63.3620608,97.328708 62.339809,98.3114275 L62.339809,98.3114275 Z" id="Shape"></path>
            </g>
        </g>
        <rect id="Rectangle-49" fill="#FFFFFF" sketch:type="MSShapeGroup" x="129.005626" y="9.15000153" width="93.5899963" height="128.691552" rx="2"></rect>
        <g id="Group-Copy" sketch:type="MSLayerGroup" transform="translate(128.651724, 8.797950)" fill="#000000">
            <path d="M45.6650272,88.4754418 C46.0686507,88.4754418 46.3962292,88.1478633 46.3962292,87.7442398 C46.3962292,87.3406163 46.0686507,87.0130378 45.6650272,87.0130378 L45.0990768,87.0130378 C44.6954533,87.0130378 44.3678748,87.3406163 44.3678748,87.7442398 C44.3678748,88.1478633 44.6954533,88.4754418 45.0990768,88.4754418 L45.6650272,88.4754418 L45.6650272,88.4754418 Z" id="Shape" sketch:type="MSShapeGroup"></path>
            <path d="M59.8167107,88.4754418 C60.2203342,88.4754418 60.5479127,88.1478633 60.5479127,87.7442398 C60.5479127,87.3406163 60.2203342,87.0130378 59.8167107,87.0130378 L59.2507603,87.0130378 C58.8471368,87.0130378 58.5195583,87.3406163 58.5195583,87.7442398 C58.5195583,88.1478633 58.8471368,88.4754418 59.2507603,88.4754418 L59.8167107,88.4754418 L59.8167107,88.4754418 Z" id="Shape" sketch:type="MSShapeGroup"></path>
            <path d="M42.8338131,88.4754418 C43.2374366,88.4754418 43.5650151,88.1478633 43.5650151,87.7442398 C43.5650151,87.3406163 43.2374366,87.0130378 42.8338131,87.0130378 L42.2678627,87.0130378 C41.8642392,87.0130378 41.5366607,87.3406163 41.5366607,87.7442398 C41.5366607,88.1478633 41.8642392,88.4754418 42.2678627,88.4754418 L42.8338131,88.4754418 L42.8338131,88.4754418 Z" id="Shape" sketch:type="MSShapeGroup"></path>
            <path d="M31.5118813,88.4754418 C31.9155048,88.4754418 32.2430833,88.1478633 32.2430833,87.7442398 C32.2430833,87.3406163 31.9155048,87.0130378 31.5118813,87.0130378 L30.945931,87.0130378 C30.5423075,87.0130378 30.214729,87.3406163 30.214729,87.7442398 C30.214729,88.1478633 30.5423075,88.4754418 30.945931,88.4754418 L31.5118813,88.4754418 L31.5118813,88.4754418 Z" id="Shape" sketch:type="MSShapeGroup"></path>
            <path d="M62.6479248,88.4754418 C63.0515483,88.4754418 63.3791268,88.1478633 63.3791268,87.7442398 C63.3791268,87.3406163 63.0515483,87.0130378 62.6479248,87.0130378 L62.0819745,87.0130378 C61.6783509,87.0130378 61.3507725,87.3406163 61.3507725,87.7442398 C61.3507725,88.1478633 61.6783509,88.4754418 62.0819745,88.4754418 L62.6479248,88.4754418 L62.6479248,88.4754418 Z" id="Shape" sketch:type="MSShapeGroup"></path>
            <path d="M40.0025989,88.4754418 C40.4062224,88.4754418 40.7338009,88.1478633 40.7338009,87.7442398 C40.7338009,87.3406163 40.4062224,87.0130378 40.0025989,87.0130378 L39.4366486,87.0130378 C39.0330251,87.0130378 38.7054466,87.3406163 38.7054466,87.7442398 C38.7054466,88.1478633 39.0330251,88.4754418 39.4366486,88.4754418 L40.0025989,88.4754418 L40.0025989,88.4754418 Z" id="Shape" sketch:type="MSShapeGroup"></path>
            <path d="M34.3430954,88.4754418 C34.746719,88.4754418 35.0742974,88.1478633 35.0742974,87.7442398 C35.0742974,87.3406163 34.746719,87.0130378 34.3430954,87.0130378 L33.7771451,87.0130378 C33.3735216,87.0130378 33.0459431,87.3406163 33.0459431,87.7442398 C33.0459431,88.1478633 33.3735216,88.4754418 33.7771451,88.4754418 L34.3430954,88.4754418 L34.3430954,88.4754418 Z" id="Shape" sketch:type="MSShapeGroup"></path>
            <path d="M70.5726921,88.4754418 L71.1386424,88.4754418 C71.5422659,88.4754418 71.8698444,88.1478633 71.8698444,87.7442398 C71.8698444,87.3406163 71.5422659,87.0130378 71.1386424,87.0130378 L70.5726921,87.0130378 C70.1690686,87.0130378 69.8414901,87.3406163 69.8414901,87.7442398 C69.8414901,88.1478633 70.1690686,88.4754418 70.5726921,88.4754418 L70.5726921,88.4754418 Z" id="Shape" sketch:type="MSShapeGroup"></path>
            <path d="M65.4776765,88.4754418 C65.8813,88.4754418 66.2088785,88.1478633 66.2088785,87.7442398 C66.2088785,87.3406163 65.8813,87.0130378 65.4776765,87.0130378 L64.9117262,87.0130378 C64.5081027,87.0130378 64.1805242,87.3406163 64.1805242,87.7442398 C64.1805242,88.1478633 64.5081027,88.4754418 64.9117262,88.4754418 L65.4776765,88.4754418 L65.4776765,88.4754418 Z" id="Shape" sketch:type="MSShapeGroup"></path>
            <path d="M73.9698565,88.4754418 C74.37348,88.4754418 74.7010585,88.1478633 74.7010585,87.7442398 C74.7010585,87.3406163 74.37348,87.0130378 73.9698565,87.0130378 L73.4039062,87.0130378 C73.0002827,87.0130378 72.6727042,87.3406163 72.6727042,87.7442398 C72.6727042,88.1478633 73.0002827,88.4754418 73.4039062,88.4754418 L73.9698565,88.4754418 L73.9698565,88.4754418 Z" id="Shape" sketch:type="MSShapeGroup"></path>
            <path d="M79.6308224,88.4754418 C80.0344459,88.4754418 80.3620244,88.1478633 80.3620244,87.7442398 C80.3620244,87.3406163 80.0344459,87.0130378 79.6308224,87.0130378 L79.0648721,87.0130378 C78.6612486,87.0130378 78.3336701,87.3406163 78.3336701,87.7442398 C78.3336701,88.1478633 78.6612486,88.4754418 79.0648721,88.4754418 L79.6308224,88.4754418 L79.6308224,88.4754418 Z" id="Shape" sketch:type="MSShapeGroup"></path>
            <path d="M76.8010707,88.4754418 C77.2046942,88.4754418 77.5322727,88.1478633 77.5322727,87.7442398 C77.5322727,87.3406163 77.2046942,87.0130378 76.8010707,87.0130378 L76.2351203,87.0130378 C75.8314968,87.0130378 75.5039183,87.3406163 75.5039183,87.7442398 C75.5039183,88.1478633 75.8314968,88.4754418 76.2351203,88.4754418 L76.8010707,88.4754418 L76.8010707,88.4754418 Z" id="Shape" sketch:type="MSShapeGroup"></path>
            <path d="M28.6821296,88.4754418 C29.0857531,88.4754418 29.4133316,88.1478633 29.4133316,87.7442398 C29.4133316,87.3406163 29.0857531,87.0130378 28.6821296,87.0130378 L28.1161792,87.0130378 C27.7125557,87.0130378 27.3849772,87.3406163 27.3849772,87.7442398 C27.3849772,88.1478633 27.7125557,88.4754418 28.1161792,88.4754418 L28.6821296,88.4754418 L28.6821296,88.4754418 Z" id="Shape" sketch:type="MSShapeGroup"></path>
            <path d="M68.3088907,88.4754418 C68.7125142,88.4754418 69.0400927,88.1478633 69.0400927,87.7442398 C69.0400927,87.3406163 68.7125142,87.0130378 68.3088907,87.0130378 L67.7429403,87.0130378 C67.3393168,87.0130378 67.0117383,87.3406163 67.0117383,87.7442398 C67.0117383,88.1478633 67.3393168,88.4754418 67.7429403,88.4754418 L68.3088907,88.4754418 L68.3088907,88.4754418 Z" id="Shape" sketch:type="MSShapeGroup"></path>
            <path d="M37.1728472,88.4754418 C37.5764707,88.4754418 37.9040492,88.1478633 37.9040492,87.7442398 C37.9040492,87.3406163 37.5764707,87.0130378 37.1728472,87.0130378 L36.6068968,87.0130378 C36.2032733,87.0130378 35.8756948,87.3406163 35.8756948,87.7442398 C35.8756948,88.1478633 36.2032733,88.4754418 36.6068968,88.4754418 L37.1728472,88.4754418 L37.1728472,88.4754418 Z" id="Shape" sketch:type="MSShapeGroup"></path>
            <path d="M54.1557448,87.0130378 L53.5897944,87.0130378 C53.1861709,87.0130378 52.8585924,87.3406163 52.8585924,87.7442398 C52.8585924,88.1478633 53.1861709,88.4754418 53.5897944,88.4754418 L54.1557448,88.4754418 C54.5593683,88.4754418 54.8869468,88.1478633 54.8869468,87.7442398 C54.8869468,87.3406163 54.5608307,87.0130378 54.1557448,87.0130378 L54.1557448,87.0130378 Z" id="Shape" sketch:type="MSShapeGroup"></path>
            <path d="M57.7181609,87.7442398 C57.7181609,87.3406163 57.3905824,87.0130378 56.9869589,87.0130378 L56.4210086,87.0130378 C56.0173851,87.0130378 55.6898066,87.3406163 55.6898066,87.7442398 C55.6898066,88.1478633 56.0173851,88.4754418 56.4210086,88.4754418 L56.9869589,88.4754418 C57.3905824,88.4754418 57.7181609,88.1478633 57.7181609,87.7442398 L57.7181609,87.7442398 Z" id="Shape" sketch:type="MSShapeGroup"></path>
            <path d="M23.7523657,87.7442398 C23.7523657,87.3406163 23.4247872,87.0130378 23.0211637,87.0130378 L22.4552134,87.0130378 C22.0515899,87.0130378 21.7240114,87.3406163 21.7240114,87.7442398 C21.7240114,88.1478633 22.0515899,88.4754418 22.4552134,88.4754418 L23.0211637,88.4754418 C23.4247872,88.4754418 23.7523657,88.1478633 23.7523657,87.7442398 L23.7523657,87.7442398 Z" id="Shape" sketch:type="MSShapeGroup"></path>
            <path d="M48.4947789,87.0130378 L47.9288286,87.0130378 C47.5252051,87.0130378 47.1976266,87.3406163 47.1976266,87.7442398 C47.1976266,88.1478633 47.5252051,88.4754418 47.9288286,88.4754418 L48.4947789,88.4754418 C48.8984024,88.4754418 49.2259809,88.1478633 49.2259809,87.7442398 C49.2259809,87.3406163 48.8998648,87.0130378 48.4947789,87.0130378 L48.4947789,87.0130378 Z" id="Shape" sketch:type="MSShapeGroup"></path>
            <path d="M51.3259931,87.0130378 L50.7600427,87.0130378 C50.3564192,87.0130378 50.0288407,87.3406163 50.0288407,87.7442398 C50.0288407,88.1478633 50.3564192,88.4754418 50.7600427,88.4754418 L51.3259931,88.4754418 C51.7296166,88.4754418 52.0571951,88.1478633 52.0571951,87.7442398 C52.0571951,87.3406163 51.7296166,87.0130378 51.3259931,87.0130378 L51.3259931,87.0130378 Z" id="Shape" sketch:type="MSShapeGroup"></path>
            <path d="M87.5570521,88.4754418 L88.1230024,88.4754418 C88.5266259,88.4754418 88.8542044,88.1478633 88.8542044,87.7442398 C88.8542044,87.3406163 88.5266259,87.0130378 88.1230024,87.0130378 L87.5570521,87.0130378 C87.1534286,87.0130378 86.8258501,87.3406163 86.8258501,87.7442398 C86.8258501,88.1478633 87.1519662,88.4754418 87.5570521,88.4754418 L87.5570521,88.4754418 Z" id="Shape" sketch:type="MSShapeGroup"></path>
            <path d="M84.7258379,88.4754418 L85.2917883,88.4754418 C85.6954118,88.4754418 86.0229903,88.1478633 86.0229903,87.7442398 C86.0229903,87.3406163 85.6954118,87.0130378 85.2917883,87.0130378 L84.7258379,87.0130378 C84.3222144,87.0130378 83.9946359,87.3406163 83.9946359,87.7442398 C83.9946359,88.1478633 84.3222144,88.4754418 84.7258379,88.4754418 L84.7258379,88.4754418 Z" id="Shape" sketch:type="MSShapeGroup"></path>
            <path d="M81.1634218,87.7442398 C81.1634218,88.1478633 81.4910003,88.4754418 81.8946238,88.4754418 L82.4605741,88.4754418 C82.8641976,88.4754418 83.1917761,88.1478633 83.1917761,87.7442398 C83.1917761,87.3406163 82.8641976,87.0130378 82.4605741,87.0130378 L81.8946238,87.0130378 C81.4910003,87.0130378 81.1634218,87.3406163 81.1634218,87.7442398 L81.1634218,87.7442398 Z" id="Shape" sketch:type="MSShapeGroup"></path>
            <path d="M25.8509154,88.4754418 C26.2545389,88.4754418 26.5821174,88.1478633 26.5821174,87.7442398 C26.5821174,87.3406163 26.2545389,87.0130378 25.8509154,87.0130378 L25.2849651,87.0130378 C24.8813416,87.0130378 24.5537631,87.3406163 24.5537631,87.7442398 C24.5537631,88.1478633 24.8813416,88.4754418 25.2849651,88.4754418 L25.8509154,88.4754418 L25.8509154,88.4754418 Z" id="Shape" sketch:type="MSShapeGroup"></path>
            <path d="M20.1899496,87.0130378 L19.6239992,87.0130378 C19.2203757,87.0130378 18.8927972,87.3406163 18.8927972,87.7442398 C18.8927972,88.1478633 19.2203757,88.4754418 19.6239992,88.4754418 L20.1899496,88.4754418 C20.5935731,88.4754418 20.9211516,88.1478633 20.9211516,87.7442398 C20.9211516,87.3406163 20.5950355,87.0130378 20.1899496,87.0130378 L20.1899496,87.0130378 Z" id="Shape" sketch:type="MSShapeGroup"></path>
            <path d="M11.1318192,88.4754418 L11.699232,88.4754418 C12.1028555,88.4754418 12.430434,88.1478633 12.430434,87.7442398 C12.430434,87.3406163 12.1028555,87.0130378 11.699232,87.0130378 L11.1318192,87.0130378 C10.7281957,87.0130378 10.4006172,87.3406163 10.4006172,87.7442398 C10.4006172,88.1478633 10.7281957,88.4754418 11.1318192,88.4754418 L11.1318192,88.4754418 Z" id="Shape" sketch:type="MSShapeGroup"></path>
            <path d="M5.47085335,88.4754418 L6.0368037,88.4754418 C6.4404272,88.4754418 6.76800569,88.1478633 6.76800569,87.7442398 C6.76800569,87.3406163 6.4404272,87.0130378 6.0368037,87.0130378 L5.47085335,87.0130378 C5.06722985,87.0130378 4.73965135,87.3406163 4.73965135,87.7442398 C4.73965135,88.1478633 5.06722985,88.4754418 5.47085335,88.4754418 L5.47085335,88.4754418 Z" id="Shape" sketch:type="MSShapeGroup"></path>
            <path d="M8.30206749,88.4754418 L8.86801783,88.4754418 C9.27164134,88.4754418 9.59921983,88.1478633 9.59921983,87.7442398 C9.59921983,87.3406163 9.27164134,87.0130378 8.86801783,87.0130378 L8.30206749,87.0130378 C7.89844398,87.0130378 7.57086549,87.3406163 7.57086549,87.7442398 C7.57086549,88.1478633 7.89698158,88.4754418 8.30206749,88.4754418 L8.30206749,88.4754418 Z" id="Shape" sketch:type="MSShapeGroup"></path>
            <path d="M17.3601978,87.0130378 L16.7942475,87.0130378 C16.390624,87.0130378 16.0630455,87.3406163 16.0630455,87.7442398 C16.0630455,88.1478633 16.390624,88.4754418 16.7942475,88.4754418 L17.3601978,88.4754418 C17.7638213,88.4754418 18.0913998,88.1478633 18.0913998,87.7442398 C18.0913998,87.3406163 17.7638213,87.0130378 17.3601978,87.0130378 L17.3601978,87.0130378 Z" id="Shape" sketch:type="MSShapeGroup"></path>
            <path d="M14.5289837,88.4754418 C14.9326072,88.4754418 15.2601857,88.1478633 15.2601857,87.7442398 C15.2601857,87.3406163 14.9326072,87.0130378 14.5289837,87.0130378 L13.9630334,87.0130378 C13.5594099,87.0130378 13.2318314,87.3406163 13.2318314,87.7442398 C13.2318314,88.1478633 13.5594099,88.4754418 13.9630334,88.4754418 L14.5289837,88.4754418 L14.5289837,88.4754418 Z" id="Shape" sketch:type="MSShapeGroup"></path>
            <path d="M92.1314518,0 L1.462404,0 C0.65515699,0 0,0.65515699 0,1.462404 L0,110.411502 L0,111.873906 L0,127.229148 C0,128.036395 0.65515699,128.691552 1.462404,128.691552 L92.1314518,128.691552 C92.9386988,128.691552 93.5938558,128.036395 93.5938558,127.229148 L93.5938558,111.873906 L93.5938558,110.411502 L93.5938558,1.462404 C93.5938558,0.65515699 92.9386988,0 92.1314518,0 L92.1314518,0 Z M90.6690478,125.766744 L2.92480799,125.766744 L2.92480799,111.873906 L90.6690478,111.873906 L90.6690478,125.766744 L90.6690478,125.766744 Z M90.6690478,87.0130378 L90.3868038,87.0130378 C89.9831803,87.0130378 89.6556018,87.3406163 89.6556018,87.7442398 C89.6556018,88.1478633 89.9831803,88.4754418 90.3868038,88.4754418 L90.6690478,88.4754418 L90.6690478,110.411502 L2.92480799,110.411502 L2.92480799,88.4754418 L3.20705196,88.4754418 C3.61067547,88.4754418 3.93825396,88.1478633 3.93825396,87.7442398 C3.93825396,87.3406163 3.61067547,87.0130378 3.20705196,87.0130378 L2.92480799,87.0130378 L2.92480799,2.92480799 L90.6690478,2.92480799 L90.6690478,87.0130378 L90.6690478,87.0130378 Z" id="Shape" sketch:type="MSShapeGroup"></path>
            <rect id="Rectangle-path" sketch:type="MSShapeGroup" x="11.699232" y="10.96803" width="17.548848" height="1.462404"></rect>
            <rect id="Rectangle-path" sketch:type="MSShapeGroup" x="11.699232" y="16.817646" width="29.2480799" height="1.462404"></rect>
            <rect id="Rectangle-path" sketch:type="MSShapeGroup" x="5.84961599" y="116.261118" width="23.3984639" height="1.462404"></rect>
            <rect id="Rectangle-path" sketch:type="MSShapeGroup" x="35.0976959" y="116.261118" width="11.699232" height="1.462404"></rect>
            <rect id="Rectangle-path" sketch:type="MSShapeGroup" x="64.3457758" y="116.261118" width="23.3984639" height="1.462404"></rect>
            <rect id="Rectangle-path" sketch:type="MSShapeGroup" x="11.699232" y="33.6352919" width="46.7969279" height="2.92480799"></rect>
            <rect id="Rectangle-path" sketch:type="MSShapeGroup" x="23.3984639" y="98.7122698" width="23.3984639" height="1.462404"></rect>
            <rect id="Rectangle-path" sketch:type="MSShapeGroup" x="17.548848" y="46.0657259" width="11.699232" height="1.462404"></rect>
            <rect id="Rectangle-path" sketch:type="MSShapeGroup" x="40.9473119" y="46.0657259" width="11.699232" height="1.462404"></rect>
            <rect id="Rectangle-path" sketch:type="MSShapeGroup" x="64.3457758" y="46.0657259" width="11.699232" height="1.462404"></rect>
            <path d="M35.8288979,76.0450078 L57.7649579,76.0450078 L59.2273619,76.0450078 L81.8946238,76.0450078 L81.8946238,52.6465439 L59.2273619,52.6465439 L57.7649579,52.6465439 L35.8288979,52.6465439 L34.3664939,52.6465439 L11.699232,52.6465439 L11.699232,76.0450078 L34.3664939,76.0450078 L35.8288979,76.0450078 L35.8288979,76.0450078 Z M59.2273619,54.1089479 L80.4322198,54.1089479 L80.4322198,74.5826038 L59.2273619,74.5826038 L59.2273619,54.1089479 L59.2273619,54.1089479 Z M35.8288979,54.1089479 L57.7649579,54.1089479 L57.7649579,74.5826038 L35.8288979,74.5826038 L35.8288979,54.1089479 L35.8288979,54.1089479 Z M13.161636,54.1089479 L34.3664939,54.1089479 L34.3664939,74.5826038 L13.161636,74.5826038 L13.161636,54.1089479 L13.161636,54.1089479 Z" id="Shape" sketch:type="MSShapeGroup"></path>
            <rect id="Rectangle-path" sketch:type="MSShapeGroup" x="17.548848" y="57.7649579" width="11.699232" height="1.462404"></rect>
            <rect id="Rectangle-path" sketch:type="MSShapeGroup" x="17.548848" y="63.6145738" width="11.699232" height="1.462404"></rect>
            <rect id="Rectangle-path" sketch:type="MSShapeGroup" x="17.548848" y="69.4641898" width="11.699232" height="1.462404"></rect>
            <rect id="Rectangle-path" sketch:type="MSShapeGroup" x="40.9473119" y="57.7649579" width="11.699232" height="1.462404"></rect>
            <rect id="Rectangle-path" sketch:type="MSShapeGroup" x="40.9473119" y="63.6145738" width="11.699232" height="1.462404"></rect>
            <rect id="Rectangle-path" sketch:type="MSShapeGroup" x="40.9473119" y="69.4641898" width="11.699232" height="1.462404"></rect>
            <rect id="Rectangle-path" sketch:type="MSShapeGroup" x="64.3457758" y="57.7649579" width="11.699232" height="1.462404"></rect>
            <rect id="Rectangle-path" sketch:type="MSShapeGroup" x="64.3457758" y="63.6145738" width="11.699232" height="1.462404"></rect>
            <rect id="Rectangle-path" sketch:type="MSShapeGroup" x="64.3457758" y="69.4641898" width="11.699232" height="1.462404"></rect>
            <path d="M14.7527315,98.6230631 C14.4310026,98.5133828 13.8533531,98.3291199 13.8533531,97.9079476 C13.8533531,97.5408841 14.2291909,97.3946438 14.6328144,97.3946438 C15.0642236,97.3946438 15.4766215,97.5774442 15.8071248,97.8436018 L16.4856803,96.5142765 C15.9899253,96.1925477 15.3947269,96.0375328 14.8170773,95.9819615 L14.8170773,94.8719969 L13.9644958,94.8719969 L13.9644958,95.9819615 C12.8457567,96.0550817 12.094081,97.055366 12.094081,98.137545 C12.094081,99.256284 12.817971,99.668682 13.534549,99.9348395 C14.258439,100.200997 14.9735545,100.293128 14.9735545,100.806432 C14.9735545,101.25539 14.4968108,101.476213 14.1121986,101.476213 C13.5257746,101.476213 12.8735424,101.100375 12.45237,100.705526 L11.699232,102.088961 C12.0019496,102.372667 12.3967987,102.546693 12.7814109,102.694396 C13.1660232,102.840636 13.5608723,102.923993 13.9644958,102.923993 L13.9644958,104.014947 L14.8170773,104.014947 L14.8170773,102.868422 C16.0089365,102.574479 16.7430634,101.914935 16.7430634,100.630944 C16.7430634,99.3557275 15.7983504,98.9711153 14.7527315,98.6230631 L14.7527315,98.6230631 Z" id="Shape" sketch:type="MSShapeGroup"></path>
            <path d="M80.6340315,102.067025 C79.0019887,101.868138 77.4342916,102.024615 75.8022487,102.033389 C74.869235,102.037776 73.9625445,101.686799 73.0704781,101.664863 C71.8873932,101.635615 71.1547288,102.327332 70.4440005,101.199819 C70.3284706,101.017018 70.1222716,100.873703 69.8970614,100.885402 C68.9932957,100.935124 68.4273454,101.416255 67.9520641,102.031927 C68.0310339,101.312424 67.9462145,100.644105 67.3671025,100.246332 C66.8011521,99.8573321 66.2834611,99.904129 65.7920934,100.149813 C65.1925078,99.6993924 64.5168771,99.325017 63.803224,98.9506416 C63.6467467,98.868747 63.4917319,98.7970892 63.3396419,98.731281 C64.7961963,97.4121926 66.1913297,96.0316832 67.5235797,94.7155196 C67.9330528,94.3104337 67.5089557,93.6757504 66.9839526,93.7883555 C64.4232832,94.3411442 61.9225724,95.5271538 60.3329393,97.6608013 C60.1355147,97.9254964 60.3080784,98.2881726 60.5406006,98.4504994 C60.8623295,98.6771721 61.1986824,98.8643598 61.5350354,99.0544723 C60.1296651,100.277042 58.1773558,101.568345 57.3306239,103.01905 C57.4388418,102.834787 57.1712218,102.611039 57.0249814,102.783602 C56.9884213,102.827475 56.9503988,102.871347 56.9138387,102.915219 C56.8436433,102.998576 56.8246321,103.130192 56.9138387,103.212087 C56.93285,103.228173 56.9503988,103.245722 56.9694101,103.261809 C57.0425303,103.327617 57.1448986,103.343703 57.2311804,103.295444 C59.050411,102.281998 60.7760477,100.968759 62.4197898,99.5443776 C62.6830225,99.6818436 62.9447928,99.8193096 63.2109503,99.9611628 C63.7125549,100.211234 64.2024602,100.483241 64.6777415,100.778647 C64.7260009,100.810819 64.7596362,100.83568 64.8049707,100.866391 C64.4481441,101.18227 64.0971672,101.515698 63.7432654,101.768694 C63.2592097,101.730672 62.811714,101.812566 62.2428389,102.353656 C61.845065,102.730956 62.1667939,103.364177 62.6713233,103.387575 C63.2650593,103.415361 63.5867882,103.228173 63.901205,102.992726 C64.6280198,102.975177 65.6297665,103.150666 66.4297015,103.117031 L66.4297015,103.119955 C66.4838105,103.434372 66.2600627,104.240157 66.2439762,104.561886 C66.2161905,105.102975 66.9269189,105.355971 67.2895951,104.994757 C68.1714247,104.117315 68.563349,102.864035 69.8473397,102.869884 C70.1719934,102.871347 71.0450485,103.2077 71.4866946,103.251572 C71.8742316,103.074621 72.2837047,102.972253 72.7165763,102.944467 C72.9096136,103.130192 73.1128878,103.304218 73.3249364,103.466545 C73.5121241,103.488481 73.9654693,103.592312 74.1468074,103.633259 C76.034771,104.061744 78.6305381,103.302756 80.6340315,103.526504 C81.5699701,103.633259 81.5538837,102.178167 80.6340315,102.067025 L80.6340315,102.067025 Z M62.3378952,98.3130335 C61.6710389,97.9986166 61.5745203,97.6754253 63.0281498,96.6166448 C63.7769007,96.0711681 64.6221702,95.6792439 65.4981502,95.372139 C64.494941,96.3972842 63.3601155,97.330298 62.3378952,98.3130335 L62.3378952,98.3130335 Z" id="Shape" sketch:type="MSShapeGroup"></path>
        </g>
        <g id="Group" sketch:type="MSLayerGroup" transform="translate(1.422577, 9.347830)" fill="#000000">
            <path d="M92.1314518,0 L1.462404,0 C0.65515699,0 0,0.65515699 0,1.462404 L0,127.229148 C0,128.036395 0.65515699,128.691552 1.462404,128.691552 L92.1314518,128.691552 C92.9386988,128.691552 93.5938558,128.036395 93.5938558,127.229148 L93.5938558,1.462404 C93.5938558,0.65515699 92.9386988,0 92.1314518,0 L92.1314518,0 Z M90.6690478,125.766744 L2.92480799,125.766744 L2.92480799,2.92480799 L90.6690478,2.92480799 L90.6690478,125.766744 L90.6690478,125.766744 Z" id="Shape" sketch:type="MSShapeGroup"></path>
            <path d="M18.6412172,105.551463 C19.9178959,103.980841 21.0936687,101.82087 22.6672154,100.532492 C23.3750189,99.9533801 22.3103888,101.211048 22.1378251,101.554712 C21.7166528,102.394132 21.2603827,103.466074 20.9430411,104.349367 C20.5423424,105.463718 20.4151132,106.361634 20.5087071,107.522783 C20.5277183,107.749456 20.6768835,107.903008 20.906481,107.920557 C22.4917269,108.040474 21.1214543,107.832813 22.6087192,107.674873 C22.8675647,107.56958 23.1044742,107.42334 23.32091,107.236152 C24.5273933,106.972919 25.5057415,107.199592 26.2574172,107.913245 C27.2255286,108.194027 27.3278969,108.727804 28.4861209,108.67077 C29.9719233,108.596188 31.0029181,107.829888 32.6130249,107.79479 C33.9072525,107.767005 35.2073296,108.112132 36.5074068,108.14723 C39.5857672,108.229124 42.7284734,107.705584 45.7907474,107.455513 C46.4371299,107.402866 46.4576036,106.43183 45.7907474,106.433292 C42.2531921,106.440604 38.766821,107.227378 35.2219537,107.008017 C33.8955533,106.926122 32.5296679,106.600006 31.1988803,106.831066 C29.0813193,107.198129 28.2141137,107.426265 26.0863159,106.570758 C24.7043441,106.016507 24.5785774,106.341161 23.2448649,106.339698 C20.5247935,106.335311 21.7488257,104.520468 22.4551668,102.787519 C22.8778015,101.749212 23.1585831,100.883469 23.2960491,99.7778916 C23.335534,99.4576251 22.9012,99.3494072 22.7037755,99.5322077 C21.2384467,100.886394 20.1314068,102.686613 18.9278484,104.263085 C17.7038162,105.865879 14.3709975,111.137846 11.8615122,110.346685 C11.7269711,110.304276 11.62899,110.522174 11.7635312,110.58067 C14.3227382,111.695022 17.3893993,107.092836 18.6412172,105.551463 L18.6412172,105.551463 Z" id="Shape" sketch:type="MSShapeGroup"></path>
            <rect id="Rectangle-path" sketch:type="MSShapeGroup" x="11.699232" y="116.99232" width="17.548848" height="1.462404"></rect>
            <rect id="Rectangle-path" sketch:type="MSShapeGroup" x="64.3457758" y="116.99232" width="17.548848" height="1.462404"></rect>
            <path d="M81.8946238,11.699232 L11.699232,11.699232 L11.699232,23.3984639 L81.8946238,23.3984639 L81.8946238,11.699232 L81.8946238,11.699232 Z M80.4322198,21.9360599 L13.161636,21.9360599 L13.161636,13.161636 L80.4322198,13.161636 L80.4322198,21.9360599 L80.4322198,21.9360599 Z" id="Shape" sketch:type="MSShapeGroup"></path>
            <rect id="Rectangle-path" sketch:type="MSShapeGroup" x="29.2480799" y="29.2480799" width="35.0976959" height="1.462404"></rect>
            <rect id="Rectangle-path" sketch:type="MSShapeGroup" x="11.699232" y="46.7969279" width="70.1953918" height="1.462404"></rect>
            <rect id="Rectangle-path" sketch:type="MSShapeGroup" x="11.699232" y="58.4961599" width="70.1953918" height="1.462404"></rect>
            <rect id="Rectangle-path" sketch:type="MSShapeGroup" x="11.699232" y="52.6465439" width="70.1953918" height="1.462404"></rect>
            <rect id="Rectangle-path" sketch:type="MSShapeGroup" x="11.699232" y="64.3457758" width="70.1953918" height="1.462404"></rect>
            <rect id="Rectangle-path" sketch:type="MSShapeGroup" x="11.699232" y="76.0450078" width="70.1953918" height="1.462404"></rect>
            <rect id="Rectangle-path" sketch:type="MSShapeGroup" x="11.699232" y="81.8946238" width="58.4961599" height="1.462404"></rect>
            <rect id="Rectangle-path" sketch:type="MSShapeGroup" x="11.699232" y="87.7442398" width="40.9473119" height="1.462404"></rect>
            <path d="M81.5984363,108.332486 C81.5765003,108.135061 81.4258726,107.944948 81.1758016,107.911313 C79.7762809,107.724125 80.315908,107.658317 79.0026692,108.177471 C78.907613,108.215493 78.8359552,108.293001 78.7833086,108.38367 C77.101544,108.629354 75.4578019,108.79168 73.9178905,109.765641 C73.7146164,109.894333 73.6648946,110.144404 73.7365524,110.349141 C72.5388436,110.265784 71.6526267,109.607702 70.5602109,109.531657 C70.6318687,109.536044 69.1548407,109.764179 69.5453026,109.933818 C68.4353379,109.454149 68.7219691,107.259081 68.6049768,106.030662 C68.5698791,105.656286 68.0507257,105.436926 67.8416019,105.824463 C67.3356101,106.766251 67.4116551,106.555665 67.1074751,107.608596 C66.7930583,108.698087 67.2215426,109.851923 65.8936798,109.17483 C64.9036323,108.668838 65.0235494,102.613024 64.8802338,101.25445 C64.8422113,100.893236 64.2674866,100.736759 64.1870543,101.160856 C63.932596,102.512118 63.7892804,103.860454 63.6108672,105.223415 C63.4982621,106.080383 62.9235373,111.12129 61.9715123,111.296778 C62.0300084,111.286542 62.0168468,111.191485 61.9568882,111.192948 C61.6351594,111.203185 61.7536141,111.168087 61.4669829,111.371361 C61.4362724,111.393297 61.4114115,111.434244 61.4245732,111.473729 C61.4742949,111.61412 61.5225543,111.753048 61.572276,111.893439 C61.6190729,112.02798 61.8150351,112.117187 61.9232529,111.985571 C63.4178298,110.164878 64.1607311,107.593972 64.4254262,105.14152 C64.4985464,105.801064 64.6067643,106.466458 64.6842717,107.011935 C64.9182563,108.643978 65.3277295,110.072746 66.0121345,111.554162 C66.1379013,111.827631 66.5546864,111.792533 66.6921524,111.554162 C67.3867943,110.338904 67.5681324,108.989105 67.9629815,107.691953 C68.1048346,108.841402 68.2964096,109.958679 68.6517737,111.111053 C68.7453676,111.413771 69.127055,111.524913 69.3581149,111.296778 C70.6055455,110.069821 71.8866114,111.045245 73.3022184,111.195873 C74.8070322,111.355275 76.3396315,111.037933 77.8371332,110.907779 C78.4235572,110.849283 78.4323317,109.923581 77.8371332,109.980615 C77.0664463,110.05081 76.4112893,110.05081 75.7356587,109.97769 C77.1278673,109.496559 78.632681,109.388341 80.0921602,109.085624 C80.8730839,109.133883 81.6437708,109.142657 82.4700291,109.120721 C82.9672465,109.10756 82.9701713,108.348572 82.4700291,108.345647 C82.1804731,108.351497 81.8894547,108.336873 81.5984363,108.332486 L81.5984363,108.332486 Z" id="Shape" sketch:type="MSShapeGroup"></path>
        </g>
    </g>
</svg>